<svg xmlns="http://www.w3.org/2000/svg" width="16" height="16.034" viewBox="0 0 16 16.034"><defs><style>.a{fill:#707070;}</style></defs><g transform="translate(-0.539)"><g transform="translate(0.539 0)"><path class="a" d="M16.12,11.767,13.882,9.53a1.488,1.488,0,0,0-2.477.559,1.523,1.523,0,0,1-1.758.959A6.9,6.9,0,0,1,5.491,6.892,1.448,1.448,0,0,1,6.45,5.134,1.488,1.488,0,0,0,7.01,2.657L4.772.42a1.6,1.6,0,0,0-2.158,0L1.1,1.938c-1.518,1.6.16,5.834,3.916,9.589S13,17.041,14.6,15.443l1.518-1.518A1.6,1.6,0,0,0,16.12,11.767Z" transform="translate(-0.539 0)"/></g></g></svg>