<svg xmlns="http://www.w3.org/2000/svg" width="16" height="11.434" viewBox="0 0 16 11.434"><defs><style>.a{fill:#707070;}</style></defs><g transform="translate(0 -43.922)"><path class="a" d="M32.695,50.864a.852.852,0,0,0,1.169.006l5.811-6.2c.389-.414.257-.75-.3-.75H27.227c-.552,0-.684.337-.3.753Z" transform="translate(-25.252)"/><path class="a" d="M.74,79.47l4.19-4.018L.743,71.473c-.41-.39-.743-.262-.743.286v7.429C0,79.735.331,79.862.74,79.47Z" transform="translate(0 -25.835)"/><path class="a" d="M27.115,176.3h12.06c.551,0,.686-.339.3-.757l-3.933-4.268-.877.938a2.08,2.08,0,0,1-2.992-.007l-.892-.958-3.966,4.3C26.429,175.958,26.564,176.3,27.115,176.3Z" transform="translate(-25.145 -120.941)"/><path class="a" d="M223.033,80.97V73.646c0-.548-.334-.676-.746-.288l-4.144,3.91,4.151,3.985C222.7,81.644,223.033,81.518,223.033,80.97Z" transform="translate(-207.033 -27.619)"/></g></svg>